<?xml version="1.0" encoding="utf-8"?>
<!-- Generator: Adobe Illustrator 24.0.1, SVG Export Plug-In . SVG Version: 6.00 Build 0)  -->
<svg version="1.1" id="Calque_1" xmlns="http://www.w3.org/2000/svg" xmlns:xlink="http://www.w3.org/1999/xlink" x="0px" y="0px"
	 viewBox="0 0 595.28 841.89" style="enable-background:new 0 0 595.28 841.89;" xml:space="preserve">
<style type="text/css">
	.st0{fill:#253337;}
	.st1{fill:none;stroke:#253337;stroke-miterlimit:10;}
	.st2{fill:#C89D2E;}
	.st3{fill:none;stroke:#000000;stroke-miterlimit:10;}
</style>
<g>
	<g>
		<g>
			<path class="st0" d="M424.97,349.07c-0.09,0.11-1.4-0.83-3.83-2.71c-2.38-1.94-5.87-4.84-10.06-8.9
				c-4.21-4.04-9.18-9.18-14.62-15.43c-5.46-6.24-11.4-13.57-17.79-21.78c-12.75-16.44-27.83-36.07-44.55-57.9
				c-4.18-5.46-8.46-11.05-12.83-16.77c-2.18-2.86-4.39-5.76-6.62-8.68c-2.23-2.95-4.46-6.04-6.34-9.45
				c-1.89-3.39-3.42-7.18-4.06-11.22c-0.32-2.02-0.45-4.09-0.27-6.18c0.1-1.04,0.23-2.09,0.48-3.13c0.1-0.52,0.27-1.03,0.41-1.54
				c0.04-0.13,0.07-0.26,0.12-0.38l0.07-0.2l0.01-0.02c0-0.01-0.01-0.01-0.01-0.01c0.15,0.05-0.41-0.12-0.78-0.15
				c-0.39-0.07-0.8-0.08-1.21-0.1c-1.64-0.03-3.33,0.32-4.94,0.96c-3.24,1.26-5.93,3.76-8.24,6.74c-2.31,2.97-4.26,6.39-6.43,9.7
				c-2.12,3.32-4.32,6.57-6.54,9.76c-4.47,6.37-9.17,12.45-14.09,18.18c-4.92,5.72-10.06,11.1-15.44,16
				c-5.37,4.91-10.98,9.34-16.71,13.3c-11.51,7.85-23.26,13.74-33.94,19.61c-5.35,2.92-10.42,5.82-14.95,9.07
				c-2.29,1.58-4.32,3.4-6.38,5.11c-1.95,1.84-3.87,3.61-5.61,5.51c-3.54,3.72-6.68,7.51-9.58,11.16
				c-2.89,3.68-5.62,7.15-8.18,10.39c-5.13,6.5-9.86,11.91-14.14,15.92c-1.09,0.98-2.05,1.98-3.08,2.78
				c-1.01,0.82-1.95,1.59-2.83,2.3c-1.82,1.33-3.4,2.41-4.7,3.24c-2.69,1.52-4.12,2.25-4.19,2.13c-0.26-0.39,5.67-3.22,13.71-11.56
				c4.04-4.12,8.53-9.58,13.47-16.18c2.48-3.29,5.08-6.86,7.95-10.59c2.85-3.74,5.96-7.65,9.52-11.52c1.74-1.97,3.7-3.84,5.68-5.77
				c2.1-1.81,4.19-3.73,6.55-5.41c4.65-3.44,9.81-6.47,15.16-9.47c10.67-6.02,22.28-11.99,33.45-19.74
				c11.14-7.76,21.69-17.52,31.28-28.82c4.81-5.64,9.41-11.63,13.81-17.92c2.18-3.15,4.35-6.35,6.44-9.64
				c2.13-3.23,4.08-6.7,6.64-10c1.28-1.64,2.7-3.22,4.34-4.61c1.64-1.4,3.54-2.57,5.56-3.38c2.03-0.81,4.23-1.28,6.49-1.24
				c0.57,0.02,1.13,0.05,1.7,0.15c0.28,0.03,0.56,0.08,0.84,0.15c0.19,0.05,0.79,0.15,1.2,0.33c0.88,0.33,1.75,0.66,2.6,1.04
				c0.21,0.09,0.44,0.18,0.63,0.28l-0.22,0.64l-0.45,1.28c-0.15,0.43-0.42,0.91-0.55,1.34l-0.17,0.48c-0.04,0.1-0.07,0.2-0.1,0.31
				c-0.12,0.41-0.25,0.82-0.34,1.25c-0.21,0.84-0.31,1.7-0.4,2.56c-0.15,1.73-0.04,3.5,0.22,5.24c0.54,3.49,1.86,6.82,3.59,9.96
				c1.72,3.15,3.83,6.1,6.01,9.02c2.21,2.93,4.4,5.83,6.57,8.69c4.34,5.74,8.58,11.37,12.72,16.85
				c16.51,21.98,31.38,41.78,43.87,58.41c6.24,8.3,11.99,15.72,17.25,22.05c5.25,6.35,10.02,11.6,14.03,15.78
				c4,4.2,7.3,7.26,9.5,9.39C423.91,347.82,425.06,348.96,424.97,349.07z"/>
		</g>
	</g>
</g>
<g>
	<g>
		<g>
			<path class="st0" d="M272.39,317.01c-0.29-0.16,0.56-1.44,0.2-3.74c-0.2-1.13-0.72-2.49-1.76-3.72c-1-1.23-2.59-2.2-4.58-2.76
				c-1.99-0.55-4.35-0.69-6.92-0.47c-2.58,0.17-5.32,0.68-8.13,1.45c-5.64,1.54-11.54,4.37-17.52,7.84c-3,1.73-5.89,3.52-8.72,5.24
				c-2.82,1.71-5.51,3.39-8.16,4.95c-2.64,1.55-5.21,2.98-7.69,4.18c-2.49,1.19-4.88,2.18-7.13,2.92c-4.5,1.49-8.43,1.84-11.07,1.65
				c-0.66-0.06-1.25-0.11-1.75-0.19c-0.5-0.11-0.92-0.22-1.26-0.31c-0.67-0.2-1.01-0.36-0.98-0.5s0.39-0.23,1.07-0.3
				c0.34-0.03,0.75-0.05,1.23-0.07c0.48-0.05,1.04-0.11,1.66-0.18c2.48-0.29,6.02-1.01,10.14-2.74c4.13-1.71,8.81-4.33,13.88-7.58
				c2.56-1.64,5.24-3.36,8.02-5.14c2.79-1.76,5.71-3.6,8.79-5.37c6.13-3.56,12.44-6.48,18.59-7.94c3.07-0.73,6.07-1.16,8.88-1.2
				c2.82-0.09,5.56,0.21,7.95,1.09c1.19,0.44,2.28,1.01,3.22,1.71c0.93,0.69,1.73,1.55,2.28,2.4c1.14,1.72,1.52,3.51,1.51,4.93
				c-0.03,1.44-0.47,2.5-0.89,3.1C272.84,316.87,272.49,317.07,272.39,317.01z"/>
		</g>
	</g>
</g>
<g>
	<g>
		<path class="st1" d="M286.65,348.12"/>
	</g>
</g>
<g>
	<g>
		<g>
			<path class="st0" d="M287.17,198.39c-0.01-0.1,0.65-0.34,1.86-0.02c1.2,0.3,2.92,1.29,4.19,3.36c1.31,2.08,1.73,5.11,1.41,8.33
				c-0.33,3.2-0.92,6.75-1.91,10.63c-1.98,7.75-5.6,16.69-11.15,25.68c-5.52,9.02-12.95,18.03-21.56,26.55
				c-4.3,4.27-8.67,8.23-12.97,11.96c-4.3,3.73-8.54,7.17-12.44,10.55c-3.89,3.38-7.47,6.69-10.53,10.05
				c-3.1,3.33-5.54,6.7-7.75,9.97c-2.22,3.25-4.38,6.22-6.69,8.5c-2.3,2.3-4.68,3.86-6.78,4.79c-2.1,0.93-3.89,1.24-5.08,1.28
				c-1.2,0.05-1.82-0.13-1.82-0.25c-0.04-0.36,2.51-0.29,6.2-2.41c1.82-1.06,3.89-2.67,5.86-4.94c2-2.26,3.89-5.18,5.96-8.52
				c2.04-3.34,4.54-7.07,7.64-10.62c3.07-3.59,6.67-7.09,10.57-10.6c3.89-3.51,8.09-7.01,12.3-10.74
				c4.22-3.73,8.52-7.65,12.74-11.85c8.45-8.36,15.74-17.05,21.25-25.68c5.55-8.61,9.29-17.11,11.55-24.5
				c2.1-7.38,3.72-13.83,1.85-17.46c-0.87-1.83-2.17-2.86-3.12-3.35C287.78,198.61,287.16,198.55,287.17,198.39z"/>
		</g>
	</g>
</g>
<g>
	<g>
		<g>
			<path class="st0" d="M320.16,274.13c-0.41,0.29-3.7-3.4-7.96-10.14c-0.52-0.85-1.07-1.74-1.64-2.66
				c-0.56-0.93-1.09-1.93-1.67-2.95c-1.17-2.03-2.26-4.29-3.43-6.65c-2.25-4.77-4.47-10.14-6.38-15.92
				c-1.88-5.79-3.28-11.44-4.29-16.61c-0.46-2.6-0.91-5.06-1.17-7.39c-0.14-1.16-0.31-2.28-0.41-3.36
				c-0.09-1.08-0.18-2.12-0.26-3.12c-0.56-7.95-0.09-12.87,0.41-12.88c0.6-0.02,1.13,4.84,2.38,12.55c0.16,0.96,0.33,1.97,0.5,3.02
				c0.17,1.05,0.41,2.14,0.62,3.26c0.4,2.26,0.96,4.64,1.5,7.16c1.19,5.01,2.65,10.48,4.49,16.13c1.87,5.64,3.93,10.91,5.94,15.65
				c1.05,2.35,2.01,4.6,3.03,6.66c0.5,1.03,0.95,2.05,1.43,3c0.48,0.95,0.94,1.86,1.39,2.73
				C318.2,269.57,320.65,273.79,320.16,274.13z"/>
		</g>
	</g>
</g>
<g>
	<g>
		<g>
			<path class="st0" d="M375.4,305.64c-0.25,0.12-1.26-1.47-2.92-4.4c-1.68-2.91-3.95-7.21-7.33-12.04
				c-3.39-4.78-8.07-10.14-14.86-13.49c-3.35-1.68-7.18-2.81-11.15-2.83c-1.98-0.01-3.97,0.25-5.94,0.83
				c-1.97,0.59-3.94,1.44-5.88,2.48c-1.95,1.03-3.85,2.2-5.75,3.37c-1.91,1.17-3.81,2.33-5.7,3.42c-3.77,2.19-7.46,4.21-11.03,6.04
				c-7.13,3.65-13.73,6.57-19.36,8.8c-11.26,4.45-18.55,6.24-18.71,5.76c-0.2-0.57,6.74-3.29,17.6-8.34
				c5.43-2.53,11.82-5.67,18.76-9.45c3.47-1.89,7.07-3.95,10.76-6.15c1.85-1.1,3.7-2.25,5.6-3.42c1.9-1.18,3.86-2.41,5.97-3.52
				c2.1-1.12,4.32-2.09,6.64-2.76c2.32-0.67,4.75-0.97,7.09-0.92c4.71,0.09,9.08,1.5,12.77,3.47c3.72,1.96,6.84,4.48,9.39,7.15
				c2.53,2.67,4.52,5.44,6.15,8.05c3.22,5.24,5.12,9.79,6.39,12.92C375.11,303.72,375.64,305.52,375.4,305.64z"/>
		</g>
	</g>
</g>
<g>
	<g>
		<g>
			<path class="st2" d="M331.96,295.35c0.23-0.04,0.74,0.8,0.64,2.51c-0.09,1.68-0.98,4.14-3.15,6.28
				c-2.18,2.19-5.52,3.67-9.06,4.68c-3.52,1-7.31,1.97-11.36,2.96c-8.09,1.95-15.54,3.31-20.99,3.91c-5.45,0.62-8.87,0.53-8.94,0
				c-0.07-0.56,3.19-1.45,8.44-2.77c5.27-1.28,12.53-3.06,20.56-5.01c4.01-0.97,7.9-1.86,11.35-2.63c3.4-0.76,6.23-1.78,8.14-3.25
				c1.94-1.46,3-3.21,3.5-4.49C331.6,296.24,331.66,295.38,331.96,295.35z"/>
		</g>
	</g>
</g>
<g>
	<g>
		<path class="st1" d="M338.81,317.88"/>
	</g>
</g>
<g>
	<g>
		<g>
			<path class="st2" d="M356.17,417.62c-0.24-0.14,0.45-1.81,1.84-4.72c1.37-2.92,3.49-7.07,5.54-12.35
				c1.02-2.64,1.98-5.58,2.71-8.79c0.7-3.18,1.08-6.66,1.01-10.34c-0.05-3.67-0.54-7.53-1.53-11.38c-0.48-1.93-1.15-3.84-1.94-5.72
				c-0.38-0.95-0.85-1.85-1.31-2.78c-0.51-0.93-1.01-1.88-1.55-2.82c-2.13-3.76-4.47-7.35-6.63-10.93
				c-2.18-3.57-4.18-7.15-5.79-10.72c-0.78-1.8-1.51-3.57-2.08-5.36c-0.29-0.86-0.59-1.81-0.79-2.7c-0.22-0.9-0.38-1.77-0.54-2.63
				c-0.59-3.39-0.99-6.46-1.89-8.98c-0.22-0.63-0.48-1.21-0.75-1.76c-0.15-0.26-0.3-0.52-0.45-0.78c-0.18-0.26-0.35-0.53-0.53-0.78
				c-0.71-1.02-1.46-1.96-2.17-2.86c-1.44-1.78-2.67-3.46-3.42-4.98c-1.49-3.08-1.37-5.01-1.17-5.04c0.32-0.09,0.75,1.7,2.5,4.25
				c0.88,1.27,2.16,2.66,3.76,4.31c0.79,0.83,1.66,1.74,2.51,2.79c0.21,0.27,0.42,0.54,0.64,0.81c0.21,0.31,0.43,0.62,0.64,0.94
				c0.39,0.65,0.74,1.34,1.05,2.06c1.21,2.87,1.78,6.1,2.5,9.36c0.18,0.81,0.37,1.63,0.6,2.42c0.21,0.81,0.48,1.56,0.8,2.39
				c0.59,1.65,1.33,3.29,2.11,4.97c1.61,3.34,3.59,6.73,5.78,10.22c2.18,3.5,4.56,7.11,6.77,11.01c0.56,0.97,1.08,1.96,1.61,2.94
				c0.51,1.02,1.02,2.05,1.44,3.09c0.86,2.08,1.57,4.18,2.07,6.29c1.03,4.2,1.47,8.37,1.42,12.32c-0.03,3.96-0.57,7.72-1.47,11.13
				c-0.92,3.38-2.09,6.41-3.32,9.08c-2.46,5.35-4.99,9.33-6.78,12.03C357.54,416.36,356.4,417.76,356.17,417.62z"/>
		</g>
	</g>
</g>
<g>
	<g>
		<g>
			<path class="st2" d="M352.54,417.46c0.13,0.2-1.05,1.34-3.66,2.66c-2.59,1.33-6.69,2.67-11.87,3.25
				c-5.18,0.63-11.37,0.36-18.04-0.04c-3.34-0.18-6.81-0.38-10.36-0.29c-3.56,0.06-7.24,0.36-10.98,0.92
				c-7.48,1.12-14.43,3.21-20.47,5.75c-3.02,1.27-5.83,2.64-8.38,4.06c-2.56,1.41-4.81,2.85-6.61,4.42
				c-3.68,3.09-5.17,6.82-5.45,9.45c-0.3,2.65,0.3,4.16-0.01,4.28c-0.11,0.05-0.42-0.25-0.76-0.96c-0.34-0.71-0.7-1.85-0.78-3.37
				c-0.07-1.51,0.17-3.4,0.97-5.42c0.79-2.03,2.2-4.14,4.11-6.03c1.9-1.91,4.27-3.62,6.87-5.21c2.59-1.61,5.46-3.15,8.58-4.57
				c6.23-2.85,13.5-5.15,21.35-6.32c3.92-0.59,7.79-0.87,11.53-0.89c3.75-0.04,7.31,0.25,10.66,0.53c6.7,0.61,12.61,1.15,17.56,0.89
				c4.95-0.21,8.87-1.05,11.51-1.89C350.95,417.87,352.38,417.2,352.54,417.46z"/>
		</g>
	</g>
</g>
<g>
	<g>
		<g>
			<path class="st0" d="M286.79,443.76c-0.07,0.55-1.78,0.81-4.43,0.9c-2.65,0.11-6.22,0.06-9.89,0.76
				c-3.63,0.7-6.64,2.24-8.55,3.71c-1.94,1.45-2.93,2.78-3.46,2.54c-0.24-0.11-0.32-0.6-0.13-1.42c0.18-0.81,0.69-1.92,1.6-3.1
				c1.78-2.39,5.38-4.79,9.8-5.63c4.38-0.82,8.27-0.26,10.92,0.34C285.29,442.49,286.85,443.22,286.79,443.76z"/>
		</g>
	</g>
</g>
<g>
	<g>
		<path class="st1" d="M253.77,452.06"/>
	</g>
</g>
<g>
	<g>
		<path class="st1" d="M254.91,474.36"/>
	</g>
</g>
<g>
	<g>
		<g>
			<path class="st0" d="M242.38,306.88c-0.89-0.72,6.93-11.44,14.45-25.83c3.95-7.43,8.63-13.39,12.13-17.51
				c3.53-4.11,5.96-6.43,6.39-6.11c0.44,0.33-1.21,3.28-4.14,7.79c-2.91,4.52-7.1,10.59-10.87,17.68
				c-3.87,7.36-8.16,13.59-11.59,17.81C245.3,304.94,242.79,307.21,242.38,306.88z"/>
		</g>
	</g>
</g>
<g>
	<g>
		<g>
			<path class="st2" d="M271.53,318.08c0.1,0.06-0.11,0.76-0.85,1.9c-0.73,1.14-2.02,2.72-4.02,4.37c-1.98,1.66-4.64,3.35-7.71,5.18
				c-3.06,1.83-6.46,3.97-10.08,6.56c-7.23,5.17-15.33,12.09-22.93,21.03c-3.81,4.43-7.42,9.53-11.77,14.52
				c-2.18,2.48-4.55,4.94-7.26,7.15c-2.7,2.21-5.8,4.14-9.19,5.51c-3.38,1.38-6.88,2.16-10.27,2.65c-3.4,0.5-6.72,0.76-9.93,1.05
				c-6.42,0.55-12.42,1.33-17.63,3.62c-5.25,2.21-9.76,5.42-13.55,8.89c-3.8,3.48-6.9,7.2-9.47,10.8c-2.58,3.6-4.67,7.05-6.44,10.13
				c-1.77,3.08-3.21,5.79-4.4,8c-2.37,4.43-3.76,6.86-4.01,6.74c-0.24-0.11,0.67-2.75,2.62-7.41c0.99-2.32,2.23-5.16,3.84-8.38
				c1.61-3.22,3.57-6.85,6.08-10.67c2.5-3.82,5.62-7.83,9.53-11.61c3.91-3.77,8.66-7.33,14.36-9.85c2.83-1.26,5.93-2.22,9.09-2.83
				c3.16-0.63,6.39-0.98,9.62-1.3c6.44-0.65,13.08-1.07,19.07-3.52c2.98-1.21,5.72-2.89,8.19-4.9c2.48-2.01,4.72-4.29,6.83-6.66
				c4.21-4.74,7.9-9.81,11.92-14.34c7.98-9.08,16.51-15.96,24.11-20.95c3.8-2.5,7.4-4.53,10.58-6.18c3.18-1.64,5.84-3.07,7.86-4.47
				C269.82,320.35,271.24,317.88,271.53,318.08z"/>
		</g>
	</g>
</g>
<g>
	<g>
		<path class="st1" d="M490.37,371.18"/>
	</g>
</g>
<g>
	<g>
		<path class="st1" d="M256.42,450.92"/>
	</g>
</g>
<g>
	<g>
		<path class="st1" d="M296.1,460.37"/>
	</g>
</g>
<g>
	<g>
		<path class="st1" d="M247.35,449.03"/>
	</g>
</g>
<g>
	<g>
		<path class="st3" d="M-7.94-14.29"/>
	</g>
</g>
<g>
	<g>
		<g>
			<path class="st0" d="M258.1,455.33c0.07-0.14,0.63,0.02,1.68,0.29c1.04,0.27,2.58,0.61,4.6,0.75c2.02,0.15,4.5,0.08,7.4-0.23
				c1.45-0.15,3-0.36,4.66-0.58c1.66-0.23,3.44-0.39,5.3-0.6c14.88-1.68,35.78-1.81,58.42,1.62c11.31,1.69,21.97,4.01,31.54,6.51
				c4.8,1.21,9.29,2.58,13.51,3.82c4.18,1.36,8.1,2.55,11.61,3.83c14.1,4.95,22.49,8.85,22.31,9.31c-0.21,0.56-8.94-2.4-23.17-6.64
				c-3.54-1.1-7.48-2.13-11.67-3.34c-4.22-1.09-8.71-2.33-13.48-3.43c-9.52-2.28-20.07-4.47-31.23-6.13
				c-22.33-3.38-42.84-3.69-57.6-2.75c-1.85,0.12-3.61,0.18-5.28,0.31c-1.67,0.12-3.27,0.23-4.77,0.28c-3,0.11-5.64-0.05-7.75-0.45
				c-2.12-0.39-3.69-1-4.69-1.53C258.5,455.84,258.05,455.44,258.1,455.33z"/>
		</g>
	</g>
</g>
<g>
	<g>
		<path class="st1" d="M229.58,311.01"/>
	</g>
</g>
<g>
	<g>
		<path class="st1" d="M251.5,313.65"/>
	</g>
</g>
<g>
	<g>
		<path d="M-0.6,0.69c0.54,0,1.64-0.21,1.93-0.74C1.63-0.6,1.07-0.69,0.6-0.69c-0.54,0-1.64,0.21-1.93,0.74
			C-1.63,0.6-1.07,0.69-0.6,0.69L-0.6,0.69z"/>
	</g>
</g>
<g>
	<g>
		<g>
			<path class="st0" d="M247.02,317.86c-0.4-0.35-0.04-1.56,1.18-3.08c1.21-1.51,3.35-3.24,6.11-4.37c2.76-1.13,5.5-1.4,7.42-1.18
				c1.94,0.22,3.04,0.84,3,1.36c-0.11,1.13-4.33,1.55-8.92,3.49C251.19,315.92,247.89,318.58,247.02,317.86z"/>
		</g>
	</g>
</g>
<g>
	<g>
		<path class="st1" d="M399.28,297.02"/>
	</g>
</g>
</svg>
